<svg width="1000" height="1000" viewBox="0 0 1000 1000" xmlns="http://www.w3.org/2000/svg"><defs/><path fill="#ffffff" transform="matrix(0.48012576243327665 0 0 0.48012576243327665 51.05801992301327 -4.27609536884904)" d="M 296.96287986397 960.65001475692 C 312.96287986397 944.65001475692 314.06287986397 919.25001475692 300.26287986397 901.95001475692 L 405.86287986397 1007.55001475692 C 423.06287986397 1024.75001475692 450.96287986397 1024.75001475692 468.16287986397 1007.55001475692 L 359.16287986397 898.55001475692 C 342.06287986397 881.45001475692 314.26287986397 881.35001475692 297.06287986397 898.35001475692 C 297.06287986397 898.35001475692 297.06287986397 898.35001475692 297.06287986397 898.35001475692 L 226.86287986397 968.45001475692 C 209.66287986397 985.65001475692 209.66287986397 1013.55001475692 226.86287986397 1030.75001475692 L 296.96287986397 960.65001475692 Z"/><path fill="#ffffff" transform="matrix(0.48012576243327665 0 0 0.48012576243327665 51.05801992301327 -4.27609536884904)" d="M 444.56287986397 1139.95001475692 C 428.56287986397 1155.95001475692 427.46287986397 1181.35001475692 441.26287986397 1198.65001475692 L 335.66287986397 1093.05001475692 C 318.46287986397 1075.85001475692 290.56287986397 1075.85001475692 273.36287986397 1093.05001475692 L 382.36287986397 1202.05001475692 C 399.46287986397 1219.15001475692 427.26287986397 1219.25001475692 444.46287986397 1202.25001475692 C 444.46287986397 1202.25001475692 444.46287986397 1202.25001475692 444.46287986397 1202.25001475692 L 514.56287986397 1132.15001475692 C 531.76287986397 1114.95001475692 531.76287986397 1087.05001475692 514.56287986397 1069.85001475692 L 444.56287986397 1139.95001475692 Z"/><path fill="#ffffff" transform="matrix(0.48012576243327665 0 0 0.48012576243327665 51.05801992301327 -4.27609536884904)" d="M 281.06287986397 1124.15001475692 C 265.06287986397 1108.15001475692 239.66287986397 1107.05001475692 222.36287986397 1120.85001475692 L 327.96287986397 1015.25001475692 C 345.16287986397 998.05001475692 345.16287986397 970.15001475692 327.96287986397 952.95001475692 L 218.96287986397 1061.95001475692 C 201.86287986397 1079.05001475692 201.76287986397 1106.85001475692 218.76287986397 1124.05001475692 C 218.76287986397 1124.05001475692 218.76287986397 1124.05001475692 218.76287986397 1124.05001475692 L 288.86287986397 1194.25001475692 C 306.06287986397 1211.45001475692 333.96287986397 1211.45001475692 351.16287986397 1194.25001475692 L 281.06287986397 1124.15001475692 Z"/><path fill="#ffffff" transform="matrix(0.48012576243327665 0 0 0.48012576243327665 51.05801992301327 -4.27609536884904)" d="M 460.36287986397 976.55001475692 C 476.36287986397 992.55001475692 501.76287986397 993.65001475692 519.06287986397 979.85001475692 L 413.46287986397 1085.35001475692 C 396.26287986397 1102.55001475692 396.26287986397 1130.45001475692 413.46287986397 1147.65001475692 L 522.46287986397 1038.65001475692 C 539.56287986397 1021.55001475692 539.66287986397 993.75001475692 522.66287986397 976.55001475692 C 522.66287986397 976.55001475692 522.66287986397 976.55001475692 522.66287986397 976.55001475692 L 452.56287986397 906.45001475692 C 435.36287986397 889.25001475692 407.46287986397 889.25001475692 390.26287986397 906.45001475692 L 460.36287986397 976.55001475692 Z"/><path id="text" fill="#ffffff" transform="matrix(0.6036689272630685 0 0 0.6036689272630685 302.8367015035726 27.671861742567973)" d="M 142.81232716756 703.10110464 L 142.81232716756 715.86910464 L 122.74832716756 715.86910464 L 122.74832716756 769.62910464 L 107.77232716756 769.62910464 L 107.77232716756 715.86910464 L 87.70832716756 715.86910464 L 87.70832716756 703.10110464 L 142.81232716756 703.10110464 Z M 141.85232716756 744.76510464 C 141.85232716756 740.28510464 142.54032716756 736.36510464 143.91632716756 733.00510464 C 145.29232716756 729.64510464 147.10032716756 726.84510464 149.34032716756 724.60510464 C 151.58032716756 722.36510464 154.15632716756 720.66910464 157.06832716756 719.51710464 C 159.98032716756 718.36510464 162.97232716756 717.78910464 166.04432716756 717.78910464 C 173.21232716756 717.78910464 178.87632716756 719.98110464 183.03632716756 724.36510464 C 187.19632716756 728.74910464 189.27632716756 735.19710464 189.27632716756 743.70910464 C 189.27632716756 744.54110464 189.24432716756 745.45310464 189.18032716756 746.44510464 C 189.11632716756 747.43710464 189.05232716756 748.31710464 188.98832716756 749.08510464 L 156.54032716756 749.08510464 C 156.86032716756 752.02910464 158.23632716756 754.36510464 160.66832716756 756.09310464 C 163.10032716756 757.82110464 166.36432716756 758.68510464 170.46032716756 758.68510464 C 173.08432716756 758.68510464 175.66032716756 758.44510464 178.18832716756 757.96510464 C 180.71632716756 757.48510464 182.78032716756 756.89310464 184.38032716756 756.18910464 L 186.30032716756 767.80510464 C 185.53232716756 768.18910464 184.50832716756 768.57310464 183.22832716756 768.95710464 C 181.94832716756 769.34110464 180.52432716756 769.67710464 178.95632716756 769.96510464 C 177.38832716756 770.25310464 175.70832716756 770.49310464 173.91632716756 770.68510464 C 172.12432716756 770.87710464 170.33232716756 770.97310464 168.54032716756 770.97310464 C 163.99632716756 770.97310464 160.04432716756 770.30110464 156.68432716756 768.95710464 C 153.32432716756 767.61310464 150.54032716756 765.77310464 148.33232716756 763.43710464 C 146.12432716756 761.10110464 144.49232716756 758.33310464 143.43632716756 755.13310464 C 142.38032716756 751.93310464 141.85232716756 748.47710464 141.85232716756 744.76510464 Z M 175.45232716756 739.29310464 C 175.38832716756 738.07710464 175.18032716756 736.89310464 174.82832716756 735.74110464 C 174.47632716756 734.58910464 173.93232716756 733.56510464 173.19632716756 732.66910464 C 172.46032716756 731.77310464 171.53232716756 731.03710464 170.41232716756 730.46110464 C 169.29232716756 729.88510464 167.90032716756 729.59710464 166.23632716756 729.59710464 C 164.63632716756 729.59710464 163.26032716756 729.86910464 162.10832716756 730.41310464 C 160.95632716756 730.95710464 159.99632716756 731.67710464 159.22832716756 732.57310464 C 158.46032716756 733.46910464 157.86832716756 734.50910464 157.45232716756 735.69310464 C 157.03632716756 736.87710464 156.73232716756 738.07710464 156.54032716756 739.29310464 L 175.45232716756 739.29310464 Z M 230.74832716756 731.80510464 C 229.46832716756 731.48510464 227.96432716756 731.14910464 226.23632716756 730.79710464 C 224.50832716756 730.44510464 222.65232716756 730.26910464 220.66832716756 730.26910464 C 219.77232716756 730.26910464 218.70032716756 730.34910464 217.45232716756 730.50910464 C 216.20432716756 730.66910464 215.26032716756 730.84510464 214.62032716756 731.03710464 L 214.62032716756 769.62910464 L 200.31632716756 769.62910464 L 200.31632716756 721.82110464 C 202.87632716756 720.92510464 205.90032716756 720.07710464 209.38832716756 719.27710464 C 212.87632716756 718.47710464 216.76432716756 718.07710464 221.05232716756 718.07710464 C 221.82032716756 718.07710464 222.74832716756 718.12510464 223.83632716756 718.22110464 C 224.92432716756 718.31710464 226.01232716756 718.44510464 227.10032716756 718.60510464 C 228.18832716756 718.76510464 229.27632716756 718.95710464 230.36432716756 719.18110464 C 231.45232716756 719.40510464 232.38032716756 719.67710464 233.14832716756 719.99710464 L 230.74832716756 731.80510464 Z M 240.82832716756 720.86110464 C 243.26032716756 720.15710464 246.39632716756 719.50110464 250.23632716756 718.89310464 C 254.07632716756 718.28510464 258.10832716756 717.98110464 262.33232716756 717.98110464 C 266.62032716756 717.98110464 270.18832716756 718.54110464 273.03632716756 719.66110464 C 275.88432716756 720.78110464 278.14032716756 722.36510464 279.80432716756 724.41310464 C 281.46832716756 726.46110464 282.65232716756 728.89310464 283.35632716756 731.70910464 C 284.06032716756 734.52510464 284.41232716756 737.66110464 284.41232716756 741.11710464 L 284.41232716756 769.62910464 L 270.10832716756 769.62910464 L 270.10832716756 742.84510464 C 270.10832716756 738.23710464 269.50032716756 734.97310464 268.28432716756 733.05310464 C 267.06832716756 731.13310464 264.79632716756 730.17310464 261.46832716756 730.17310464 C 260.44432716756 730.17310464 259.35632716756 730.22110464 258.20432716756 730.31710464 C 257.05232716756 730.41310464 256.02832716756 730.52510464 255.13232716756 730.65310464 L 255.13232716756 769.62910464 L 240.82832716756 769.62910464 L 240.82832716756 720.86110464 Z M 316.66832716756 759.64510464 C 318.07632716756 759.64510464 319.42032716756 759.61310464 320.70032716756 759.54910464 C 321.98032716756 759.48510464 323.00432716756 759.38910464 323.77232716756 759.26110464 L 323.77232716756 748.41310464 C 323.19632716756 748.28510464 322.33232716756 748.15710464 321.18032716756 748.02910464 C 320.02832716756 747.90110464 318.97232716756 747.83710464 318.01232716756 747.83710464 C 316.66832716756 747.83710464 315.40432716756 747.91710464 314.22032716756 748.07710464 C 313.03632716756 748.23710464 311.99632716756 748.54110464 311.10032716756 748.98910464 C 310.20432716756 749.43710464 309.50032716756 750.04510464 308.98832716756 750.81310464 C 308.47632716756 751.58110464 308.22032716756 752.54110464 308.22032716756 753.69310464 C 308.22032716756 755.93310464 308.97232716756 757.48510464 310.47632716756 758.34910464 C 311.98032716756 759.21310464 314.04432716756 759.64510464 316.66832716756 759.64510464 Z M 315.51632716756 717.78910464 C 319.74032716756 717.78910464 323.26032716756 718.26910464 326.07632716756 719.22910464 C 328.89232716756 720.18910464 331.14832716756 721.56510464 332.84432716756 723.35710464 C 334.54032716756 725.14910464 335.74032716756 727.32510464 336.44432716756 729.88510464 C 337.14832716756 732.44510464 337.50032716756 735.29310464 337.50032716756 738.42910464 L 337.50032716756 768.18910464 C 335.45232716756 768.63710464 332.60432716756 769.16510464 328.95632716756 769.77310464 C 325.30832716756 770.38110464 320.89232716756 770.68510464 315.70832716756 770.68510464 C 312.44432716756 770.68510464 309.48432716756 770.39710464 306.82832716756 769.82110464 C 304.17232716756 769.24510464 301.88432716756 768.30110464 299.96432716756 766.98910464 C 298.04432716756 765.67710464 296.57232716756 763.96510464 295.54832716756 761.85310464 C 294.52432716756 759.74110464 294.01232716756 757.14910464 294.01232716756 754.07710464 C 294.01232716756 751.13310464 294.60432716756 748.63710464 295.78832716756 746.58910464 C 296.97232716756 744.54110464 298.55632716756 742.90910464 300.54032716756 741.69310464 C 302.52432716756 740.47710464 304.79632716756 739.59710464 307.35632716756 739.05310464 C 309.91632716756 738.50910464 312.57232716756 738.23710464 315.32432716756 738.23710464 C 317.18032716756 738.23710464 318.82832716756 738.31710464 320.26832716756 738.47710464 C 321.70832716756 738.63710464 322.87632716756 738.84510464 323.77232716756 739.10110464 L 323.77232716756 737.75710464 C 323.77232716756 735.32510464 323.03632716756 733.37310464 321.56432716756 731.90110464 C 320.09232716756 730.42910464 317.53232716756 729.69310464 313.88432716756 729.69310464 C 311.45232716756 729.69310464 309.05232716756 729.86910464 306.68432716756 730.22110464 C 304.31632716756 730.57310464 302.26832716756 731.06910464 300.54032716756 731.70910464 L 298.71632716756 720.18910464 C 299.54832716756 719.93310464 300.58832716756 719.66110464 301.83632716756 719.37310464 C 303.08432716756 719.08510464 304.44432716756 718.82910464 305.91632716756 718.60510464 C 307.38832716756 718.38110464 308.94032716756 718.18910464 310.57232716756 718.02910464 C 312.20432716756 717.86910464 313.85232716756 717.78910464 315.51632716756 717.78910464 Z M 364.76432716756 737.37310464 C 366.17232716756 735.83710464 367.62832716756 734.23710464 369.13232716756 732.57310464 C 370.63632716756 730.90910464 372.09232716756 729.26110464 373.50032716756 727.62910464 C 374.90832716756 725.99710464 376.23632716756 724.44510464 377.48432716756 722.97310464 C 378.73232716756 721.50110464 379.80432716756 720.22110464 380.70032716756 719.13310464 L 397.69232716756 719.13310464 C 394.30032716756 723.03710464 390.98832716756 726.76510464 387.75632716756 730.31710464 C 384.52432716756 733.86910464 380.98832716756 737.53310464 377.14832716756 741.30910464 C 379.06832716756 743.03710464 381.05232716756 745.10110464 383.10032716756 747.50110464 C 385.14832716756 749.90110464 387.13232716756 752.38110464 389.05232716756 754.94110464 C 390.97232716756 757.50110464 392.73232716756 760.06110464 394.33232716756 762.62110464 C 395.93232716756 765.18110464 397.27632716756 767.51710464 398.36432716756 769.62910464 L 381.94832716756 769.62910464 C 380.92432716756 767.96510464 379.75632716756 766.12510464 378.44432716756 764.10910464 C 377.13232716756 762.09310464 375.74032716756 760.07710464 374.26832716756 758.06110464 C 372.79632716756 756.04510464 371.24432716756 754.10910464 369.61232716756 752.25310464 C 367.98032716756 750.39710464 366.36432716756 748.82910464 364.76432716756 747.54910464 L 364.76432716756 769.62910464 L 350.46032716756 769.62910464 L 350.46032716756 697.43710464 L 364.76432716756 695.13310464 L 364.76432716756 737.37310464 Z M 460.38032716756 770.97310464 C 449.56432716756 770.97310464 441.32432716756 767.96510464 435.66032716756 761.94910464 C 429.99632716756 755.93310464 427.16432716756 747.38910464 427.16432716756 736.31710464 C 427.16432716756 730.81310464 428.02832716756 725.90110464 429.75632716756 721.58110464 C 431.48432716756 717.26110464 433.85232716756 713.61310464 436.86032716756 710.63710464 C 439.86832716756 707.66110464 443.45232716756 705.40510464 447.61232716756 703.86910464 C 451.77232716756 702.33310464 456.28432716756 701.56510464 461.14832716756 701.56510464 C 463.96432716756 701.56510464 466.52432716756 701.77310464 468.82832716756 702.18910464 C 471.13232716756 702.60510464 473.14832716756 703.08510464 474.87632716756 703.62910464 C 476.60432716756 704.17310464 478.04432716756 704.73310464 479.19632716756 705.30910464 C 480.34832716756 705.88510464 481.18032716756 706.33310464 481.69232716756 706.65310464 L 477.37232716756 718.74910464 C 475.32432716756 717.66110464 472.94032716756 716.73310464 470.22032716756 715.96510464 C 467.50032716756 715.19710464 464.41232716756 714.81310464 460.95632716756 714.81310464 C 458.65232716756 714.81310464 456.39632716756 715.19710464 454.18832716756 715.96510464 C 451.98032716756 716.73310464 450.02832716756 717.96510464 448.33232716756 719.66110464 C 446.63632716756 721.35710464 445.27632716756 723.54910464 444.25232716756 726.23710464 C 443.22832716756 728.92510464 442.71632716756 732.18910464 442.71632716756 736.02910464 C 442.71632716756 739.10110464 443.05232716756 741.96510464 443.72432716756 744.62110464 C 444.39632716756 747.27710464 445.48432716756 749.56510464 446.98832716756 751.48510464 C 448.49232716756 753.40510464 450.46032716756 754.92510464 452.89232716756 756.04510464 C 455.32432716756 757.16510464 458.26832716756 757.72510464 461.72432716756 757.72510464 C 463.90032716756 757.72510464 465.85232716756 757.59710464 467.58032716756 757.34110464 C 469.30832716756 757.08510464 470.84432716756 756.78110464 472.18832716756 756.42910464 C 473.53232716756 756.07710464 474.71632716756 755.67710464 475.74032716756 755.22910464 C 476.76432716756 754.78110464 477.69232716756 754.36510464 478.52432716756 753.98110464 L 482.65232716756 765.98110464 C 480.54032716756 767.26110464 477.56432716756 768.41310464 473.72432716756 769.43710464 C 469.88432716756 770.46110464 465.43632716756 770.97310464 460.38032716756 770.97310464 Z M 533.14832716756 767.90110464 C 530.71632716756 768.60510464 527.58032716756 769.26110464 523.74032716756 769.86910464 C 519.90032716756 770.47710464 515.86832716756 770.78110464 511.64432716756 770.78110464 C 507.35632716756 770.78110464 503.78832716756 770.20510464 500.94032716756 769.05310464 C 498.09232716756 767.90110464 495.83632716756 766.28510464 494.17232716756 764.20510464 C 492.50832716756 762.12510464 491.32432716756 759.64510464 490.62032716756 756.76510464 C 489.91632716756 753.88510464 489.56432716756 750.71710464 489.56432716756 747.26110464 L 489.56432716756 719.13310464 L 503.86832716756 719.13310464 L 503.86832716756 745.53310464 C 503.86832716756 750.14110464 504.47632716756 753.46910464 505.69232716756 755.51710464 C 506.90832716756 757.56510464 509.18032716756 758.58910464 512.50832716756 758.58910464 C 513.53232716756 758.58910464 514.62032716756 758.54110464 515.77232716756 758.44510464 C 516.92432716756 758.34910464 517.94832716756 758.23710464 518.84432716756 758.10910464 L 518.84432716756 719.13310464 L 533.14832716756 719.13310464 L 533.14832716756 767.90110464 Z M 565.88432716756 759.64510464 C 567.29232716756 759.64510464 568.63632716756 759.61310464 569.91632716756 759.54910464 C 571.19632716756 759.48510464 572.22032716756 759.38910464 572.98832716756 759.26110464 L 572.98832716756 748.41310464 C 572.41232716756 748.28510464 571.54832716756 748.15710464 570.39632716756 748.02910464 C 569.24432716756 747.90110464 568.18832716756 747.83710464 567.22832716756 747.83710464 C 565.88432716756 747.83710464 564.62032716756 747.91710464 563.43632716756 748.07710464 C 562.25232716756 748.23710464 561.21232716756 748.54110464 560.31632716756 748.98910464 C 559.42032716756 749.43710464 558.71632716756 750.04510464 558.20432716756 750.81310464 C 557.69232716756 751.58110464 557.43632716756 752.54110464 557.43632716756 753.69310464 C 557.43632716756 755.93310464 558.18832716756 757.48510464 559.69232716756 758.34910464 C 561.19632716756 759.21310464 563.26032716756 759.64510464 565.88432716756 759.64510464 Z M 564.73232716756 717.78910464 C 568.95632716756 717.78910464 572.47632716756 718.26910464 575.29232716756 719.22910464 C 578.10832716756 720.18910464 580.36432716756 721.56510464 582.06032716756 723.35710464 C 583.75632716756 725.14910464 584.95632716756 727.32510464 585.66032716756 729.88510464 C 586.36432716756 732.44510464 586.71632716756 735.29310464 586.71632716756 738.42910464 L 586.71632716756 768.18910464 C 584.66832716756 768.63710464 581.82032716756 769.16510464 578.17232716756 769.77310464 C 574.52432716756 770.38110464 570.10832716756 770.68510464 564.92432716756 770.68510464 C 561.66032716756 770.68510464 558.70032716756 770.39710464 556.04432716756 769.82110464 C 553.38832716756 769.24510464 551.10032716756 768.30110464 549.18032716756 766.98910464 C 547.26032716756 765.67710464 545.78832716756 763.96510464 544.76432716756 761.85310464 C 543.74032716756 759.74110464 543.22832716756 757.14910464 543.22832716756 754.07710464 C 543.22832716756 751.13310464 543.82032716756 748.63710464 545.00432716756 746.58910464 C 546.18832716756 744.54110464 547.77232716756 742.90910464 549.75632716756 741.69310464 C 551.74032716756 740.47710464 554.01232716756 739.59710464 556.57232716756 739.05310464 C 559.13232716756 738.50910464 561.78832716756 738.23710464 564.54032716756 738.23710464 C 566.39632716756 738.23710464 568.04432716756 738.31710464 569.48432716756 738.47710464 C 570.92432716756 738.63710464 572.09232716756 738.84510464 572.98832716756 739.10110464 L 572.98832716756 737.75710464 C 572.98832716756 735.32510464 572.25232716756 733.37310464 570.78032716756 731.90110464 C 569.30832716756 730.42910464 566.74832716756 729.69310464 563.10032716756 729.69310464 C 560.66832716756 729.69310464 558.26832716756 729.86910464 555.90032716756 730.22110464 C 553.53232716756 730.57310464 551.48432716756 731.06910464 549.75632716756 731.70910464 L 547.93232716756 720.18910464 C 548.76432716756 719.93310464 549.80432716756 719.66110464 551.05232716756 719.37310464 C 552.30032716756 719.08510464 553.66032716756 718.82910464 555.13232716756 718.60510464 C 556.60432716756 718.38110464 558.15632716756 718.18910464 559.78832716756 718.02910464 C 561.42032716756 717.86910464 563.06832716756 717.78910464 564.73232716756 717.78910464 Z M 599.67632716756 720.86110464 C 602.10832716756 720.15710464 605.24432716756 719.50110464 609.08432716756 718.89310464 C 612.92432716756 718.28510464 616.95632716756 717.98110464 621.18032716756 717.98110464 C 625.46832716756 717.98110464 629.03632716756 718.54110464 631.88432716756 719.66110464 C 634.73232716756 720.78110464 636.98832716756 722.36510464 638.65232716756 724.41310464 C 640.31632716756 726.46110464 641.50032716756 728.89310464 642.20432716756 731.70910464 C 642.90832716756 734.52510464 643.26032716756 737.66110464 643.26032716756 741.11710464 L 643.26032716756 769.62910464 L 628.95632716756 769.62910464 L 628.95632716756 742.84510464 C 628.95632716756 738.23710464 628.34832716756 734.97310464 627.13232716756 733.05310464 C 625.91632716756 731.13310464 623.64432716756 730.17310464 620.31632716756 730.17310464 C 619.29232716756 730.17310464 618.20432716756 730.22110464 617.05232716756 730.31710464 C 615.90032716756 730.41310464 614.87632716756 730.52510464 613.98032716756 730.65310464 L 613.98032716756 769.62910464 L 599.67632716756 769.62910464 L 599.67632716756 720.86110464 Z"/><path id="text" fill="#ffffff" transform="matrix(0.30183446363153427 0 0 0.30183446363153427 303.8218891928659 87.66206505826266)" d="M 195.67265433512 1539.25820928 L 195.67265433512 1512.57020928 C 191.25665433512 1505.72220928 187.09665433512 1498.97020928 183.19265433512 1492.31420928 C 179.28865433512 1485.65820928 175.60865433512 1479.13020928 172.15265433512 1472.73020928 L 183.09665433512 1472.73020928 C 185.52865433512 1477.97820928 188.24865433512 1483.30620928 191.25665433512 1488.71420928 C 194.26465433512 1494.12220928 197.36865433512 1499.32220928 200.56865433512 1504.31420928 C 203.70465433512 1499.32220928 206.77665433512 1494.12220928 209.78465433512 1488.71420928 C 212.79265433512 1483.30620928 215.54465433512 1477.97820928 218.04065433512 1472.73020928 L 228.40865433512 1472.73020928 C 224.95265433512 1479.13020928 221.27265433512 1485.64220928 217.36865433512 1492.26620928 C 213.46465433512 1498.89020928 209.33665433512 1505.59420928 204.98465433512 1512.37820928 L 204.98465433512 1539.25820928 L 195.67265433512 1539.25820928 Z M 235.41665433512 1505.94620928 C 235.41665433512 1500.25020928 236.26465433512 1495.22620928 237.96065433512 1490.87420928 C 239.65665433512 1486.52220928 241.96065433512 1482.89020928 244.87265433512 1479.97820928 C 247.78465433512 1477.06620928 251.17665433512 1474.87420928 255.04865433512 1473.40220928 C 258.92065433512 1471.93020928 263.03265433512 1471.19420928 267.38465433512 1471.19420928 C 271.67265433512 1471.19420928 275.72065433512 1471.93020928 279.52865433512 1473.40220928 C 283.33665433512 1474.87420928 286.68065433512 1477.06620928 289.56065433512 1479.97820928 C 292.44065433512 1482.89020928 294.72865433512 1486.52220928 296.42465433512 1490.87420928 C 298.12065433512 1495.22620928 298.96865433512 1500.25020928 298.96865433512 1505.94620928 C 298.96865433512 1511.64220928 298.12065433512 1516.66620928 296.42465433512 1521.01820928 C 294.72865433512 1525.37020928 292.44065433512 1529.00220928 289.56065433512 1531.91420928 C 286.68065433512 1534.82620928 283.33665433512 1537.01820928 279.52865433512 1538.49020928 C 275.72065433512 1539.96220928 271.67265433512 1540.69820928 267.38465433512 1540.69820928 C 263.03265433512 1540.69820928 258.92065433512 1539.96220928 255.04865433512 1538.49020928 C 251.17665433512 1537.01820928 247.78465433512 1534.82620928 244.87265433512 1531.91420928 C 241.96065433512 1529.00220928 239.65665433512 1525.37020928 237.96065433512 1521.01820928 C 236.26465433512 1516.66620928 235.41665433512 1511.64220928 235.41665433512 1505.94620928 Z M 245.20865433512 1505.94620928 C 245.20865433512 1509.97820928 245.72065433512 1513.64220928 246.74465433512 1516.93820928 C 247.76865433512 1520.23420928 249.22465433512 1523.03420928 251.11265433512 1525.33820928 C 253.00065433512 1527.64220928 255.30465433512 1529.41820928 258.02465433512 1530.66620928 C 260.74465433512 1531.91420928 263.80065433512 1532.53820928 267.19265433512 1532.53820928 C 270.58465433512 1532.53820928 273.62465433512 1531.91420928 276.31265433512 1530.66620928 C 279.00065433512 1529.41820928 281.28865433512 1527.64220928 283.17665433512 1525.33820928 C 285.06465433512 1523.03420928 286.52065433512 1520.23420928 287.54465433512 1516.93820928 C 288.56865433512 1513.64220928 289.08065433512 1509.97820928 289.08065433512 1505.94620928 C 289.08065433512 1501.91420928 288.56865433512 1498.25020928 287.54465433512 1494.95420928 C 286.52065433512 1491.65820928 285.06465433512 1488.85820928 283.17665433512 1486.55420928 C 281.28865433512 1484.25020928 279.00065433512 1482.47420928 276.31265433512 1481.22620928 C 273.62465433512 1479.97820928 270.58465433512 1479.35420928 267.19265433512 1479.35420928 C 263.80065433512 1479.35420928 260.74465433512 1479.97820928 258.02465433512 1481.22620928 C 255.30465433512 1482.47420928 253.00065433512 1484.25020928 251.11265433512 1486.55420928 C 249.22465433512 1488.85820928 247.76865433512 1491.65820928 246.74465433512 1494.95420928 C 245.72065433512 1498.25020928 245.20865433512 1501.91420928 245.20865433512 1505.94620928 Z M 342.36065433512 1540.69820928 C 338.00865433512 1540.69820928 334.23265433512 1540.02620928 331.03265433512 1538.68220928 C 327.83265433512 1537.33820928 325.20865433512 1535.49820928 323.16065433512 1533.16220928 C 321.11265433512 1530.82620928 319.59265433512 1528.05820928 318.60065433512 1524.85820928 C 317.60865433512 1521.65820928 317.11265433512 1518.20220928 317.11265433512 1514.49020928 L 317.11265433512 1472.73020928 L 326.42465433512 1472.73020928 L 326.42465433512 1513.43420928 C 326.42465433512 1520.09020928 327.89665433512 1524.92220928 330.84065433512 1527.93020928 C 333.78465433512 1530.93820928 337.62465433512 1532.44220928 342.36065433512 1532.44220928 C 344.72865433512 1532.44220928 346.88865433512 1532.07420928 348.84065433512 1531.33820928 C 350.79265433512 1530.60220928 352.47265433512 1529.46620928 353.88065433512 1527.93020928 C 355.28865433512 1526.39420928 356.37665433512 1524.42620928 357.14465433512 1522.02620928 C 357.91265433512 1519.62620928 358.29665433512 1516.76220928 358.29665433512 1513.43420928 L 358.29665433512 1472.73020928 L 367.60865433512 1472.73020928 L 367.60865433512 1514.49020928 C 367.60865433512 1518.20220928 367.11265433512 1521.65820928 366.12065433512 1524.85820928 C 365.12865433512 1528.05820928 363.59265433512 1530.82620928 361.51265433512 1533.16220928 C 359.43265433512 1535.49820928 356.80865433512 1537.33820928 353.64065433512 1538.68220928 C 350.47265433512 1540.02620928 346.71265433512 1540.69820928 342.36065433512 1540.69820928 Z M 420.98465433512 1511.41820928 C 422.00865433512 1512.69820928 423.30465433512 1514.37820928 424.87265433512 1516.45820928 C 426.44065433512 1518.53820928 428.05665433512 1520.84220928 429.72065433512 1523.37020928 C 431.38465433512 1525.89820928 433.03265433512 1528.53820928 434.66465433512 1531.29020928 C 436.29665433512 1534.04220928 437.68865433512 1536.69820928 438.84065433512 1539.25820928 L 428.66465433512 1539.25820928 C 427.38465433512 1536.82620928 425.99265433512 1534.36220928 424.48865433512 1531.86620928 C 422.98465433512 1529.37020928 421.46465433512 1526.98620928 419.92865433512 1524.71420928 C 418.39265433512 1522.44220928 416.87265433512 1520.31420928 415.36865433512 1518.33020928 C 413.86465433512 1516.34620928 412.50465433512 1514.61820928 411.28865433512 1513.14620928 C 410.45665433512 1513.21020928 409.60865433512 1513.24220928 408.74465433512 1513.24220928 C 407.88065433512 1513.24220928 407.00065433512 1513.24220928 406.10465433512 1513.24220928 L 397.75265433512 1513.24220928 L 397.75265433512 1539.25820928 L 388.44065433512 1539.25820928 L 388.44065433512 1473.69020928 C 391.06465433512 1473.05020928 393.99265433512 1472.61820928 397.22465433512 1472.39420928 C 400.45665433512 1472.17020928 403.41665433512 1472.05820928 406.10465433512 1472.05820928 C 415.44865433512 1472.05820928 422.56865433512 1473.81820928 427.46465433512 1477.33820928 C 432.36065433512 1480.85820928 434.80865433512 1486.10620928 434.80865433512 1493.08220928 C 434.80865433512 1497.49820928 433.64065433512 1501.27420928 431.30465433512 1504.41020928 C 428.96865433512 1507.54620928 425.52865433512 1509.88220928 420.98465433512 1511.41820928 Z M 406.87265433512 1480.21820928 C 402.90465433512 1480.21820928 399.86465433512 1480.31420928 397.75265433512 1480.50620928 L 397.75265433512 1505.56220928 L 404.37665433512 1505.56220928 C 407.57665433512 1505.56220928 410.45665433512 1505.40220928 413.01665433512 1505.08220928 C 415.57665433512 1504.76220928 417.73665433512 1504.15420928 419.49665433512 1503.25820928 C 421.25665433512 1502.36220928 422.61665433512 1501.09820928 423.57665433512 1499.46620928 C 424.53665433512 1497.83420928 425.01665433512 1495.67420928 425.01665433512 1492.98620928 C 425.01665433512 1490.49020928 424.53665433512 1488.41020928 423.57665433512 1486.74620928 C 422.61665433512 1485.08220928 421.32065433512 1483.77020928 419.68865433512 1482.81020928 C 418.05665433512 1481.85020928 416.13665433512 1481.17820928 413.92865433512 1480.79420928 C 411.72065433512 1480.41020928 409.36865433512 1480.21820928 406.87265433512 1480.21820928 Z M 498.26465433512 1472.05820928 C 507.60865433512 1472.05820928 514.79265433512 1473.83420928 519.81665433512 1477.38620928 C 524.84065433512 1480.93820928 527.35265433512 1486.23420928 527.35265433512 1493.27420928 C 527.35265433512 1497.11420928 526.66465433512 1500.39420928 525.28865433512 1503.11420928 C 523.91265433512 1505.83420928 521.92865433512 1508.04220928 519.33665433512 1509.73820928 C 516.74465433512 1511.43420928 513.59265433512 1512.66620928 509.88065433512 1513.43420928 C 506.16865433512 1514.20220928 501.97665433512 1514.58620928 497.30465433512 1514.58620928 L 489.91265433512 1514.58620928 L 489.91265433512 1539.25820928 L 480.60065433512 1539.25820928 L 480.60065433512 1473.69020928 C 483.22465433512 1473.05020928 486.15265433512 1472.61820928 489.38465433512 1472.39420928 C 492.61665433512 1472.17020928 495.57665433512 1472.05820928 498.26465433512 1472.05820928 Z M 499.03265433512 1480.21820928 C 495.06465433512 1480.21820928 492.02465433512 1480.31420928 489.91265433512 1480.50620928 L 489.91265433512 1506.61820928 L 496.92065433512 1506.61820928 C 500.12065433512 1506.61820928 503.00065433512 1506.41020928 505.56065433512 1505.99420928 C 508.12065433512 1505.57820928 510.28065433512 1504.87420928 512.04065433512 1503.88220928 C 513.80065433512 1502.89020928 515.16065433512 1501.53020928 516.12065433512 1499.80220928 C 517.08065433512 1498.07420928 517.56065433512 1495.86620928 517.56065433512 1493.17820928 C 517.56065433512 1490.61820928 517.06465433512 1488.50620928 516.07265433512 1486.84220928 C 515.08065433512 1485.17820928 513.73665433512 1483.85020928 512.04065433512 1482.85820928 C 510.34465433512 1481.86620928 508.37665433512 1481.17820928 506.13665433512 1480.79420928 C 503.89665433512 1480.41020928 501.52865433512 1480.21820928 499.03265433512 1480.21820928 Z M 583.41665433512 1539.25820928 C 582.32865433512 1536.37820928 581.30465433512 1533.54620928 580.34465433512 1530.76220928 C 579.38465433512 1527.97820928 578.39265433512 1525.14620928 577.36865433512 1522.26620928 L 547.22465433512 1522.26620928 L 541.17665433512 1539.25820928 L 531.48065433512 1539.25820928 C 534.04065433512 1532.21820928 536.44065433512 1525.70620928 538.68065433512 1519.72220928 C 540.92065433512 1513.73820928 543.11265433512 1508.05820928 545.25665433512 1502.68220928 C 547.40065433512 1497.30620928 549.52865433512 1492.17020928 551.64065433512 1487.27420928 C 553.75265433512 1482.37820928 555.96065433512 1477.53020928 558.26465433512 1472.73020928 L 566.80865433512 1472.73020928 C 569.11265433512 1477.53020928 571.32065433512 1482.37820928 573.43265433512 1487.27420928 C 575.54465433512 1492.17020928 577.67265433512 1497.30620928 579.81665433512 1502.68220928 C 581.96065433512 1508.05820928 584.15265433512 1513.73820928 586.39265433512 1519.72220928 C 588.63265433512 1525.70620928 591.03265433512 1532.21820928 593.59265433512 1539.25820928 L 583.41665433512 1539.25820928 Z M 574.68065433512 1514.58620928 C 572.63265433512 1509.01820928 570.60065433512 1503.62620928 568.58465433512 1498.41020928 C 566.56865433512 1493.19420928 564.47265433512 1488.18620928 562.29665433512 1483.38620928 C 560.05665433512 1488.18620928 557.92865433512 1493.19420928 555.91265433512 1498.41020928 C 553.89665433512 1503.62620928 551.89665433512 1509.01820928 549.91265433512 1514.58620928 L 574.68065433512 1514.58620928 Z M 624.40865433512 1532.63420928 C 634.13665433512 1532.63420928 639.00065433512 1529.30620928 639.00065433512 1522.65020928 C 639.00065433512 1520.60220928 638.56865433512 1518.85820928 637.70465433512 1517.41820928 C 636.84065433512 1515.97820928 635.67265433512 1514.73020928 634.20065433512 1513.67420928 C 632.72865433512 1512.61820928 631.04865433512 1511.70620928 629.16065433512 1510.93820928 C 627.27265433512 1510.17020928 625.27265433512 1509.40220928 623.16065433512 1508.63420928 C 620.72865433512 1507.80220928 618.42465433512 1506.85820928 616.24865433512 1505.80220928 C 614.07265433512 1504.74620928 612.18465433512 1503.49820928 610.58465433512 1502.05820928 C 608.98465433512 1500.61820928 607.72065433512 1498.90620928 606.79265433512 1496.92220928 C 605.86465433512 1494.93820928 605.40065433512 1492.53820928 605.40065433512 1489.72220928 C 605.40065433512 1483.89820928 607.38465433512 1479.35420928 611.35265433512 1476.09020928 C 615.32065433512 1472.82620928 620.79265433512 1471.19420928 627.76865433512 1471.19420928 C 631.80065433512 1471.19420928 635.46465433512 1471.62620928 638.76065433512 1472.49020928 C 642.05665433512 1473.35420928 644.47265433512 1474.29820928 646.00865433512 1475.32220928 L 643.03265433512 1482.90620928 C 641.68865433512 1482.07420928 639.68865433512 1481.25820928 637.03265433512 1480.45820928 C 634.37665433512 1479.65820928 631.28865433512 1479.25820928 627.76865433512 1479.25820928 C 625.97665433512 1479.25820928 624.31265433512 1479.45020928 622.77665433512 1479.83420928 C 621.24065433512 1480.21820928 619.89665433512 1480.79420928 618.74465433512 1481.56220928 C 617.59265433512 1482.33020928 616.68065433512 1483.30620928 616.00865433512 1484.49020928 C 615.33665433512 1485.67420928 615.00065433512 1487.06620928 615.00065433512 1488.66620928 C 615.00065433512 1490.45820928 615.35265433512 1491.96220928 616.05665433512 1493.17820928 C 616.76065433512 1494.39420928 617.75265433512 1495.46620928 619.03265433512 1496.39420928 C 620.31265433512 1497.32220928 621.80065433512 1498.17020928 623.49665433512 1498.93820928 C 625.19265433512 1499.70620928 627.06465433512 1500.47420928 629.11265433512 1501.24220928 C 631.99265433512 1502.39420928 634.63265433512 1503.54620928 637.03265433512 1504.69820928 C 639.43265433512 1505.85020928 641.51265433512 1507.22620928 643.27265433512 1508.82620928 C 645.03265433512 1510.42620928 646.39265433512 1512.33020928 647.35265433512 1514.53820928 C 648.31265433512 1516.74620928 648.79265433512 1519.41820928 648.79265433512 1522.55420928 C 648.79265433512 1528.37820928 646.66465433512 1532.85820928 642.40865433512 1535.99420928 C 638.15265433512 1539.13020928 632.15265433512 1540.69820928 624.40865433512 1540.69820928 C 621.78465433512 1540.69820928 619.36865433512 1540.52220928 617.16065433512 1540.17020928 C 614.95265433512 1539.81820928 612.98465433512 1539.40220928 611.25665433512 1538.92220928 C 609.52865433512 1538.44220928 608.04065433512 1537.93020928 606.79265433512 1537.38620928 C 605.54465433512 1536.84220928 604.56865433512 1536.37820928 603.86465433512 1535.99420928 L 606.64865433512 1528.31420928 C 608.12065433512 1529.14620928 610.36065433512 1530.07420928 613.36865433512 1531.09820928 C 616.37665433512 1532.12220928 620.05665433512 1532.63420928 624.40865433512 1532.63420928 Z M 680.28065433512 1532.63420928 C 690.00865433512 1532.63420928 694.87265433512 1529.30620928 694.87265433512 1522.65020928 C 694.87265433512 1520.60220928 694.44065433512 1518.85820928 693.57665433512 1517.41820928 C 692.71265433512 1515.97820928 691.54465433512 1514.73020928 690.07265433512 1513.67420928 C 688.60065433512 1512.61820928 686.92065433512 1511.70620928 685.03265433512 1510.93820928 C 683.14465433512 1510.17020928 681.14465433512 1509.40220928 679.03265433512 1508.63420928 C 676.60065433512 1507.80220928 674.29665433512 1506.85820928 672.12065433512 1505.80220928 C 669.94465433512 1504.74620928 668.05665433512 1503.49820928 666.45665433512 1502.05820928 C 664.85665433512 1500.61820928 663.59265433512 1498.90620928 662.66465433512 1496.92220928 C 661.73665433512 1494.93820928 661.27265433512 1492.53820928 661.27265433512 1489.72220928 C 661.27265433512 1483.89820928 663.25665433512 1479.35420928 667.22465433512 1476.09020928 C 671.19265433512 1472.82620928 676.66465433512 1471.19420928 683.64065433512 1471.19420928 C 687.67265433512 1471.19420928 691.33665433512 1471.62620928 694.63265433512 1472.49020928 C 697.92865433512 1473.35420928 700.34465433512 1474.29820928 701.88065433512 1475.32220928 L 698.90465433512 1482.90620928 C 697.56065433512 1482.07420928 695.56065433512 1481.25820928 692.90465433512 1480.45820928 C 690.24865433512 1479.65820928 687.16065433512 1479.25820928 683.64065433512 1479.25820928 C 681.84865433512 1479.25820928 680.18465433512 1479.45020928 678.64865433512 1479.83420928 C 677.11265433512 1480.21820928 675.76865433512 1480.79420928 674.61665433512 1481.56220928 C 673.46465433512 1482.33020928 672.55265433512 1483.30620928 671.88065433512 1484.49020928 C 671.20865433512 1485.67420928 670.87265433512 1487.06620928 670.87265433512 1488.66620928 C 670.87265433512 1490.45820928 671.22465433512 1491.96220928 671.92865433512 1493.17820928 C 672.63265433512 1494.39420928 673.62465433512 1495.46620928 674.90465433512 1496.39420928 C 676.18465433512 1497.32220928 677.67265433512 1498.17020928 679.36865433512 1498.93820928 C 681.06465433512 1499.70620928 682.93665433512 1500.47420928 684.98465433512 1501.24220928 C 687.86465433512 1502.39420928 690.50465433512 1503.54620928 692.90465433512 1504.69820928 C 695.30465433512 1505.85020928 697.38465433512 1507.22620928 699.14465433512 1508.82620928 C 700.90465433512 1510.42620928 702.26465433512 1512.33020928 703.22465433512 1514.53820928 C 704.18465433512 1516.74620928 704.66465433512 1519.41820928 704.66465433512 1522.55420928 C 704.66465433512 1528.37820928 702.53665433512 1532.85820928 698.28065433512 1535.99420928 C 694.02465433512 1539.13020928 688.02465433512 1540.69820928 680.28065433512 1540.69820928 C 677.65665433512 1540.69820928 675.24065433512 1540.52220928 673.03265433512 1540.17020928 C 670.82465433512 1539.81820928 668.85665433512 1539.40220928 667.12865433512 1538.92220928 C 665.40065433512 1538.44220928 663.91265433512 1537.93020928 662.66465433512 1537.38620928 C 661.41665433512 1536.84220928 660.44065433512 1536.37820928 659.73665433512 1535.99420928 L 662.52065433512 1528.31420928 C 663.99265433512 1529.14620928 666.23265433512 1530.07420928 669.24065433512 1531.09820928 C 672.24865433512 1532.12220928 675.92865433512 1532.63420928 680.28065433512 1532.63420928 Z M 720.69665433512 1472.73020928 L 730.00865433512 1472.73020928 L 730.00865433512 1539.25820928 L 720.69665433512 1539.25820928 L 720.69665433512 1472.73020928 Z M 805.08065433512 1472.73020928 C 802.64865433512 1479.77020928 800.32865433512 1486.28220928 798.12065433512 1492.26620928 C 795.91265433512 1498.25020928 793.75265433512 1503.93020928 791.64065433512 1509.30620928 C 789.52865433512 1514.68220928 787.43265433512 1519.81820928 785.35265433512 1524.71420928 C 783.27265433512 1529.61020928 781.14465433512 1534.45820928 778.96865433512 1539.25820928 L 770.23265433512 1539.25820928 C 768.05665433512 1534.45820928 765.92865433512 1529.61020928 763.84865433512 1524.71420928 C 761.76865433512 1519.81820928 759.65665433512 1514.68220928 757.51265433512 1509.30620928 C 755.36865433512 1503.93020928 753.17665433512 1498.25020928 750.93665433512 1492.26620928 C 748.69665433512 1486.28220928 746.39265433512 1479.77020928 744.02465433512 1472.73020928 L 754.29665433512 1472.73020928 C 757.75265433512 1482.84220928 761.14465433512 1492.57020928 764.47265433512 1501.91420928 C 767.80065433512 1511.25820928 771.22465433512 1520.02620928 774.74465433512 1528.21820928 C 778.26465433512 1520.09020928 781.68865433512 1511.33820928 785.01665433512 1501.96220928 C 788.34465433512 1492.58620928 791.70465433512 1482.84220928 795.09665433512 1472.73020928 L 805.08065433512 1472.73020928 Z M 819.09665433512 1539.25820928 L 819.09665433512 1472.73020928 L 859.70465433512 1472.73020928 L 859.70465433512 1480.69820928 L 828.40865433512 1480.69820928 L 828.40865433512 1500.47420928 L 856.24865433512 1500.47420928 L 856.24865433512 1508.25020928 L 828.40865433512 1508.25020928 L 828.40865433512 1531.29020928 L 862.10465433512 1531.29020928 L 862.10465433512 1539.25820928 L 819.09665433512 1539.25820928 Z M 905.68865433512 1472.73020928 L 915.00065433512 1472.73020928 L 915.00065433512 1539.25820928 L 905.68865433512 1539.25820928 L 905.68865433512 1472.73020928 Z M 981.91265433512 1539.25820928 C 980.50465433512 1536.89020928 978.88865433512 1534.23420928 977.06465433512 1531.29020928 C 975.24065433512 1528.34620928 973.27265433512 1525.29020928 971.16065433512 1522.12220928 C 969.04865433512 1518.95420928 966.85665433512 1515.73820928 964.58465433512 1512.47420928 C 962.31265433512 1509.21020928 960.05665433512 1506.05820928 957.81665433512 1503.01820928 C 955.57665433512 1499.97820928 953.40065433512 1497.11420928 951.28865433512 1494.42620928 C 949.17665433512 1491.73820928 947.22465433512 1489.37020928 945.43265433512 1487.32220928 L 945.43265433512 1539.25820928 L 936.31265433512 1539.25820928 L 936.31265433512 1472.73020928 L 943.70465433512 1472.73020928 C 946.71265433512 1475.93020928 949.92865433512 1479.65820928 953.35265433512 1483.91420928 C 956.77665433512 1488.17020928 960.16865433512 1492.55420928 963.52865433512 1497.06620928 C 966.88865433512 1501.57820928 970.05665433512 1506.01020928 973.03265433512 1510.36220928 C 976.00865433512 1514.71420928 978.52065433512 1518.58620928 980.56865433512 1521.97820928 L 980.56865433512 1472.73020928 L 989.68865433512 1472.73020928 L 989.68865433512 1539.25820928 L 981.91265433512 1539.25820928 Z M 1039.60865433512 1540.69820928 C 1034.93665433512 1540.69820928 1030.68065433512 1539.93020928 1026.84065433512 1538.39420928 C 1023.00065433512 1536.85820928 1019.70465433512 1534.61820928 1016.95265433512 1531.67420928 C 1014.20065433512 1528.73020928 1012.07265433512 1525.09820928 1010.56865433512 1520.77820928 C 1009.06465433512 1516.45820928 1008.31265433512 1511.51420928 1008.31265433512 1505.94620928 C 1008.31265433512 1500.37820928 1009.16065433512 1495.43420928 1010.85665433512 1491.11420928 C 1012.55265433512 1486.79420928 1014.84065433512 1483.16220928 1017.72065433512 1480.21820928 C 1020.60065433512 1477.27420928 1023.96065433512 1475.03420928 1027.80065433512 1473.49820928 C 1031.64065433512 1471.96220928 1035.73665433512 1471.19420928 1040.08865433512 1471.19420928 C 1042.84065433512 1471.19420928 1045.32065433512 1471.38620928 1047.52865433512 1471.77020928 C 1049.73665433512 1472.15420928 1051.65665433512 1472.60220928 1053.28865433512 1473.11420928 C 1054.92065433512 1473.62620928 1056.24865433512 1474.13820928 1057.27265433512 1474.65020928 C 1058.29665433512 1475.16220928 1059.00065433512 1475.54620928 1059.38465433512 1475.80220928 L 1056.69665433512 1483.48220928 C 1056.12065433512 1483.09820928 1055.28865433512 1482.68220928 1054.20065433512 1482.23420928 C 1053.11265433512 1481.78620928 1051.88065433512 1481.33820928 1050.50465433512 1480.89020928 C 1049.12865433512 1480.44220928 1047.62465433512 1480.07420928 1045.99265433512 1479.78620928 C 1044.36065433512 1479.49820928 1042.71265433512 1479.35420928 1041.04865433512 1479.35420928 C 1037.52865433512 1479.35420928 1034.36065433512 1479.96220928 1031.54465433512 1481.17820928 C 1028.72865433512 1482.39420928 1026.32865433512 1484.15420928 1024.34465433512 1486.45820928 C 1022.36065433512 1488.76220928 1020.84065433512 1491.56220928 1019.78465433512 1494.85820928 C 1018.72865433512 1498.15420928 1018.20065433512 1501.85020928 1018.20065433512 1505.94620928 C 1018.20065433512 1509.91420928 1018.66465433512 1513.53020928 1019.59265433512 1516.79420928 C 1020.52065433512 1520.05820928 1021.91265433512 1522.85820928 1023.76865433512 1525.19420928 C 1025.62465433512 1527.53020928 1027.94465433512 1529.33820928 1030.72865433512 1530.61820928 C 1033.51265433512 1531.89820928 1036.76065433512 1532.53820928 1040.47265433512 1532.53820928 C 1044.76065433512 1532.53820928 1048.31265433512 1532.09020928 1051.12865433512 1531.19420928 C 1053.94465433512 1530.29820928 1056.05665433512 1529.49820928 1057.46465433512 1528.79420928 L 1059.86465433512 1536.47420928 C 1059.41665433512 1536.79420928 1058.61665433512 1537.19420928 1057.46465433512 1537.67420928 C 1056.31265433512 1538.15420928 1054.87265433512 1538.61820928 1053.14465433512 1539.06620928 C 1051.41665433512 1539.51420928 1049.40065433512 1539.89820928 1047.09665433512 1540.21820928 C 1044.79265433512 1540.53820928 1042.29665433512 1540.69820928 1039.60865433512 1540.69820928 Z M 1070.71265433512 1505.94620928 C 1070.71265433512 1500.25020928 1071.56065433512 1495.22620928 1073.25665433512 1490.87420928 C 1074.95265433512 1486.52220928 1077.25665433512 1482.89020928 1080.16865433512 1479.97820928 C 1083.08065433512 1477.06620928 1086.47265433512 1474.87420928 1090.34465433512 1473.40220928 C 1094.21665433512 1471.93020928 1098.32865433512 1471.19420928 1102.68065433512 1471.19420928 C 1106.96865433512 1471.19420928 1111.01665433512 1471.93020928 1114.82465433512 1473.40220928 C 1118.63265433512 1474.87420928 1121.97665433512 1477.06620928 1124.85665433512 1479.97820928 C 1127.73665433512 1482.89020928 1130.02465433512 1486.52220928 1131.72065433512 1490.87420928 C 1133.41665433512 1495.22620928 1134.26465433512 1500.25020928 1134.26465433512 1505.94620928 C 1134.26465433512 1511.64220928 1133.41665433512 1516.66620928 1131.72065433512 1521.01820928 C 1130.02465433512 1525.37020928 1127.73665433512 1529.00220928 1124.85665433512 1531.91420928 C 1121.97665433512 1534.82620928 1118.63265433512 1537.01820928 1114.82465433512 1538.49020928 C 1111.01665433512 1539.96220928 1106.96865433512 1540.69820928 1102.68065433512 1540.69820928 C 1098.32865433512 1540.69820928 1094.21665433512 1539.96220928 1090.34465433512 1538.49020928 C 1086.47265433512 1537.01820928 1083.08065433512 1534.82620928 1080.16865433512 1531.91420928 C 1077.25665433512 1529.00220928 1074.95265433512 1525.37020928 1073.25665433512 1521.01820928 C 1071.56065433512 1516.66620928 1070.71265433512 1511.64220928 1070.71265433512 1505.94620928 Z M 1080.50465433512 1505.94620928 C 1080.50465433512 1509.97820928 1081.01665433512 1513.64220928 1082.04065433512 1516.93820928 C 1083.06465433512 1520.23420928 1084.52065433512 1523.03420928 1086.40865433512 1525.33820928 C 1088.29665433512 1527.64220928 1090.60065433512 1529.41820928 1093.32065433512 1530.66620928 C 1096.04065433512 1531.91420928 1099.09665433512 1532.53820928 1102.48865433512 1532.53820928 C 1105.88065433512 1532.53820928 1108.92065433512 1531.91420928 1111.60865433512 1530.66620928 C 1114.29665433512 1529.41820928 1116.58465433512 1527.64220928 1118.47265433512 1525.33820928 C 1120.36065433512 1523.03420928 1121.81665433512 1520.23420928 1122.84065433512 1516.93820928 C 1123.86465433512 1513.64220928 1124.37665433512 1509.97820928 1124.37665433512 1505.94620928 C 1124.37665433512 1501.91420928 1123.86465433512 1498.25020928 1122.84065433512 1494.95420928 C 1121.81665433512 1491.65820928 1120.36065433512 1488.85820928 1118.47265433512 1486.55420928 C 1116.58465433512 1484.25020928 1114.29665433512 1482.47420928 1111.60865433512 1481.22620928 C 1108.92065433512 1479.97820928 1105.88065433512 1479.35420928 1102.48865433512 1479.35420928 C 1099.09665433512 1479.35420928 1096.04065433512 1479.97820928 1093.32065433512 1481.22620928 C 1090.60065433512 1482.47420928 1088.29665433512 1484.25020928 1086.40865433512 1486.55420928 C 1084.52065433512 1488.85820928 1083.06465433512 1491.65820928 1082.04065433512 1494.95420928 C 1081.01665433512 1498.25020928 1080.50465433512 1501.91420928 1080.50465433512 1505.94620928 Z M 1182.74465433512 1530.04220928 C 1182.10465433512 1528.50620928 1181.25665433512 1526.55420928 1180.20065433512 1524.18620928 C 1179.14465433512 1521.81820928 1178.00865433512 1519.25820928 1176.79265433512 1516.50620928 C 1175.57665433512 1513.75420928 1174.28065433512 1510.92220928 1172.90465433512 1508.01020928 C 1171.52865433512 1505.09820928 1170.23265433512 1502.34620928 1169.01665433512 1499.75420928 C 1167.80065433512 1497.16220928 1166.66465433512 1494.84220928 1165.60865433512 1492.79420928 C 1164.55265433512 1490.74620928 1163.70465433512 1489.17820928 1163.06465433512 1488.09020928 C 1162.36065433512 1495.64220928 1161.78465433512 1503.81820928 1161.33665433512 1512.61820928 C 1160.88865433512 1521.41820928 1160.50465433512 1530.29820928 1160.18465433512 1539.25820928 L 1151.06465433512 1539.25820928 C 1151.32065433512 1533.49820928 1151.60865433512 1527.69020928 1151.92865433512 1521.83420928 C 1152.24865433512 1515.97820928 1152.61665433512 1510.21820928 1153.03265433512 1504.55420928 C 1153.44865433512 1498.89020928 1153.89665433512 1493.37020928 1154.37665433512 1487.99420928 C 1154.85665433512 1482.61820928 1155.38465433512 1477.53020928 1155.96065433512 1472.73020928 L 1164.12065433512 1472.73020928 C 1165.84865433512 1475.54620928 1167.70465433512 1478.87420928 1169.68865433512 1482.71420928 C 1171.67265433512 1486.55420928 1173.65665433512 1490.57020928 1175.64065433512 1494.76220928 C 1177.62465433512 1498.95420928 1179.54465433512 1503.14620928 1181.40065433512 1507.33820928 C 1183.25665433512 1511.53020928 1184.95265433512 1515.35420928 1186.48865433512 1518.81020928 C 1188.02465433512 1515.35420928 1189.72065433512 1511.53020928 1191.57665433512 1507.33820928 C 1193.43265433512 1503.14620928 1195.35265433512 1498.95420928 1197.33665433512 1494.76220928 C 1199.32065433512 1490.57020928 1201.30465433512 1486.55420928 1203.28865433512 1482.71420928 C 1205.27265433512 1478.87420928 1207.12865433512 1475.54620928 1208.85665433512 1472.73020928 L 1217.01665433512 1472.73020928 C 1219.19265433512 1494.17020928 1220.82465433512 1516.34620928 1221.91265433512 1539.25820928 L 1212.79265433512 1539.25820928 C 1212.47265433512 1530.29820928 1212.08865433512 1521.41820928 1211.64065433512 1512.61820928 C 1211.19265433512 1503.81820928 1210.61665433512 1495.64220928 1209.91265433512 1488.09020928 C 1209.27265433512 1489.17820928 1208.42465433512 1490.74620928 1207.36865433512 1492.79420928 C 1206.31265433512 1494.84220928 1205.17665433512 1497.16220928 1203.96065433512 1499.75420928 C 1202.74465433512 1502.34620928 1201.44865433512 1505.09820928 1200.07265433512 1508.01020928 C 1198.69665433512 1510.92220928 1197.40065433512 1513.75420928 1196.18465433512 1516.50620928 C 1194.96865433512 1519.25820928 1193.83265433512 1521.81820928 1192.77665433512 1524.18620928 C 1191.72065433512 1526.55420928 1190.87265433512 1528.50620928 1190.23265433512 1530.04220928 L 1182.74465433512 1530.04220928 Z M 1241.30465433512 1539.25820928 L 1241.30465433512 1472.73020928 L 1281.91265433512 1472.73020928 L 1281.91265433512 1480.69820928 L 1250.61665433512 1480.69820928 L 1250.61665433512 1500.47420928 L 1278.45665433512 1500.47420928 L 1278.45665433512 1508.25020928 L 1250.61665433512 1508.25020928 L 1250.61665433512 1531.29020928 L 1284.31265433512 1531.29020928 L 1284.31265433512 1539.25820928 L 1241.30465433512 1539.25820928 Z M 1343.35265433512 1532.63420928 C 1353.08065433512 1532.63420928 1357.94465433512 1529.30620928 1357.94465433512 1522.65020928 C 1357.94465433512 1520.60220928 1357.51265433512 1518.85820928 1356.64865433512 1517.41820928 C 1355.78465433512 1515.97820928 1354.61665433512 1514.73020928 1353.14465433512 1513.67420928 C 1351.67265433512 1512.61820928 1349.99265433512 1511.70620928 1348.10465433512 1510.93820928 C 1346.21665433512 1510.17020928 1344.21665433512 1509.40220928 1342.10465433512 1508.63420928 C 1339.67265433512 1507.80220928 1337.36865433512 1506.85820928 1335.19265433512 1505.80220928 C 1333.01665433512 1504.74620928 1331.12865433512 1503.49820928 1329.52865433512 1502.05820928 C 1327.92865433512 1500.61820928 1326.66465433512 1498.90620928 1325.73665433512 1496.92220928 C 1324.80865433512 1494.93820928 1324.34465433512 1492.53820928 1324.34465433512 1489.72220928 C 1324.34465433512 1483.89820928 1326.32865433512 1479.35420928 1330.29665433512 1476.09020928 C 1334.26465433512 1472.82620928 1339.73665433512 1471.19420928 1346.71265433512 1471.19420928 C 1350.74465433512 1471.19420928 1354.40865433512 1471.62620928 1357.70465433512 1472.49020928 C 1361.00065433512 1473.35420928 1363.41665433512 1474.29820928 1364.95265433512 1475.32220928 L 1361.97665433512 1482.90620928 C 1360.63265433512 1482.07420928 1358.63265433512 1481.25820928 1355.97665433512 1480.45820928 C 1353.32065433512 1479.65820928 1350.23265433512 1479.25820928 1346.71265433512 1479.25820928 C 1344.92065433512 1479.25820928 1343.25665433512 1479.45020928 1341.72065433512 1479.83420928 C 1340.18465433512 1480.21820928 1338.84065433512 1480.79420928 1337.68865433512 1481.56220928 C 1336.53665433512 1482.33020928 1335.62465433512 1483.30620928 1334.95265433512 1484.49020928 C 1334.28065433512 1485.67420928 1333.94465433512 1487.06620928 1333.94465433512 1488.66620928 C 1333.94465433512 1490.45820928 1334.29665433512 1491.96220928 1335.00065433512 1493.17820928 C 1335.70465433512 1494.39420928 1336.69665433512 1495.46620928 1337.97665433512 1496.39420928 C 1339.25665433512 1497.32220928 1340.74465433512 1498.17020928 1342.44065433512 1498.93820928 C 1344.13665433512 1499.70620928 1346.00865433512 1500.47420928 1348.05665433512 1501.24220928 C 1350.93665433512 1502.39420928 1353.57665433512 1503.54620928 1355.97665433512 1504.69820928 C 1358.37665433512 1505.85020928 1360.45665433512 1507.22620928 1362.21665433512 1508.82620928 C 1363.97665433512 1510.42620928 1365.33665433512 1512.33020928 1366.29665433512 1514.53820928 C 1367.25665433512 1516.74620928 1367.73665433512 1519.41820928 1367.73665433512 1522.55420928 C 1367.73665433512 1528.37820928 1365.60865433512 1532.85820928 1361.35265433512 1535.99420928 C 1357.09665433512 1539.13020928 1351.09665433512 1540.69820928 1343.35265433512 1540.69820928 C 1340.72865433512 1540.69820928 1338.31265433512 1540.52220928 1336.10465433512 1540.17020928 C 1333.89665433512 1539.81820928 1331.92865433512 1539.40220928 1330.20065433512 1538.92220928 C 1328.47265433512 1538.44220928 1326.98465433512 1537.93020928 1325.73665433512 1537.38620928 C 1324.48865433512 1536.84220928 1323.51265433512 1536.37820928 1322.80865433512 1535.99420928 L 1325.59265433512 1528.31420928 C 1327.06465433512 1529.14620928 1329.30465433512 1530.07420928 1332.31265433512 1531.09820928 C 1335.32065433512 1532.12220928 1339.00065433512 1532.63420928 1343.35265433512 1532.63420928 Z M 1381.08065433512 1505.94620928 C 1381.08065433512 1500.25020928 1381.92865433512 1495.22620928 1383.62465433512 1490.87420928 C 1385.32065433512 1486.52220928 1387.62465433512 1482.89020928 1390.53665433512 1479.97820928 C 1393.44865433512 1477.06620928 1396.84065433512 1474.87420928 1400.71265433512 1473.40220928 C 1404.58465433512 1471.93020928 1408.69665433512 1471.19420928 1413.04865433512 1471.19420928 C 1417.33665433512 1471.19420928 1421.38465433512 1471.93020928 1425.19265433512 1473.40220928 C 1429.00065433512 1474.87420928 1432.34465433512 1477.06620928 1435.22465433512 1479.97820928 C 1438.10465433512 1482.89020928 1440.39265433512 1486.52220928 1442.08865433512 1490.87420928 C 1443.78465433512 1495.22620928 1444.63265433512 1500.25020928 1444.63265433512 1505.94620928 C 1444.63265433512 1511.64220928 1443.78465433512 1516.66620928 1442.08865433512 1521.01820928 C 1440.39265433512 1525.37020928 1438.10465433512 1529.00220928 1435.22465433512 1531.91420928 C 1432.34465433512 1534.82620928 1429.00065433512 1537.01820928 1425.19265433512 1538.49020928 C 1421.38465433512 1539.96220928 1417.33665433512 1540.69820928 1413.04865433512 1540.69820928 C 1408.69665433512 1540.69820928 1404.58465433512 1539.96220928 1400.71265433512 1538.49020928 C 1396.84065433512 1537.01820928 1393.44865433512 1534.82620928 1390.53665433512 1531.91420928 C 1387.62465433512 1529.00220928 1385.32065433512 1525.37020928 1383.62465433512 1521.01820928 C 1381.92865433512 1516.66620928 1381.08065433512 1511.64220928 1381.08065433512 1505.94620928 Z M 1390.87265433512 1505.94620928 C 1390.87265433512 1509.97820928 1391.38465433512 1513.64220928 1392.40865433512 1516.93820928 C 1393.43265433512 1520.23420928 1394.88865433512 1523.03420928 1396.77665433512 1525.33820928 C 1398.66465433512 1527.64220928 1400.96865433512 1529.41820928 1403.68865433512 1530.66620928 C 1406.40865433512 1531.91420928 1409.46465433512 1532.53820928 1412.85665433512 1532.53820928 C 1416.24865433512 1532.53820928 1419.28865433512 1531.91420928 1421.97665433512 1530.66620928 C 1424.66465433512 1529.41820928 1426.95265433512 1527.64220928 1428.84065433512 1525.33820928 C 1430.72865433512 1523.03420928 1432.18465433512 1520.23420928 1433.20865433512 1516.93820928 C 1434.23265433512 1513.64220928 1434.74465433512 1509.97820928 1434.74465433512 1505.94620928 C 1434.74465433512 1501.91420928 1434.23265433512 1498.25020928 1433.20865433512 1494.95420928 C 1432.18465433512 1491.65820928 1430.72865433512 1488.85820928 1428.84065433512 1486.55420928 C 1426.95265433512 1484.25020928 1424.66465433512 1482.47420928 1421.97665433512 1481.22620928 C 1419.28865433512 1479.97820928 1416.24865433512 1479.35420928 1412.85665433512 1479.35420928 C 1409.46465433512 1479.35420928 1406.40865433512 1479.97820928 1403.68865433512 1481.22620928 C 1400.96865433512 1482.47420928 1398.66465433512 1484.25020928 1396.77665433512 1486.55420928 C 1394.88865433512 1488.85820928 1393.43265433512 1491.65820928 1392.40865433512 1494.95420928 C 1391.38465433512 1498.25020928 1390.87265433512 1501.91420928 1390.87265433512 1505.94620928 Z M 1503.28865433512 1531.19420928 L 1503.28865433512 1539.25820928 L 1463.25665433512 1539.25820928 L 1463.25665433512 1472.73020928 L 1472.56865433512 1472.73020928 L 1472.56865433512 1531.19420928 L 1503.28865433512 1531.19420928 Z M 1540.92065433512 1540.69820928 C 1536.56865433512 1540.69820928 1532.79265433512 1540.02620928 1529.59265433512 1538.68220928 C 1526.39265433512 1537.33820928 1523.76865433512 1535.49820928 1521.72065433512 1533.16220928 C 1519.67265433512 1530.82620928 1518.15265433512 1528.05820928 1517.16065433512 1524.85820928 C 1516.16865433512 1521.65820928 1515.67265433512 1518.20220928 1515.67265433512 1514.49020928 L 1515.67265433512 1472.73020928 L 1524.98465433512 1472.73020928 L 1524.98465433512 1513.43420928 C 1524.98465433512 1520.09020928 1526.45665433512 1524.92220928 1529.40065433512 1527.93020928 C 1532.34465433512 1530.93820928 1536.18465433512 1532.44220928 1540.92065433512 1532.44220928 C 1543.28865433512 1532.44220928 1545.44865433512 1532.07420928 1547.40065433512 1531.33820928 C 1549.35265433512 1530.60220928 1551.03265433512 1529.46620928 1552.44065433512 1527.93020928 C 1553.84865433512 1526.39420928 1554.93665433512 1524.42620928 1555.70465433512 1522.02620928 C 1556.47265433512 1519.62620928 1556.85665433512 1516.76220928 1556.85665433512 1513.43420928 L 1556.85665433512 1472.73020928 L 1566.16865433512 1472.73020928 L 1566.16865433512 1514.49020928 C 1566.16865433512 1518.20220928 1565.67265433512 1521.65820928 1564.68065433512 1524.85820928 C 1563.68865433512 1528.05820928 1562.15265433512 1530.82620928 1560.07265433512 1533.16220928 C 1557.99265433512 1535.49820928 1555.36865433512 1537.33820928 1552.20065433512 1538.68220928 C 1549.03265433512 1540.02620928 1545.27265433512 1540.69820928 1540.92065433512 1540.69820928 Z M 1631.44865433512 1472.73020928 L 1631.44865433512 1480.79420928 L 1610.52065433512 1480.79420928 L 1610.52065433512 1539.25820928 L 1601.20865433512 1539.25820928 L 1601.20865433512 1480.79420928 L 1580.28065433512 1480.79420928 L 1580.28065433512 1472.73020928 L 1631.44865433512 1472.73020928 Z M 1646.04065433512 1472.73020928 L 1655.35265433512 1472.73020928 L 1655.35265433512 1539.25820928 L 1646.04065433512 1539.25820928 L 1646.04065433512 1472.73020928 Z M 1673.97665433512 1505.94620928 C 1673.97665433512 1500.25020928 1674.82465433512 1495.22620928 1676.52065433512 1490.87420928 C 1678.21665433512 1486.52220928 1680.52065433512 1482.89020928 1683.43265433512 1479.97820928 C 1686.34465433512 1477.06620928 1689.73665433512 1474.87420928 1693.60865433512 1473.40220928 C 1697.48065433512 1471.93020928 1701.59265433512 1471.19420928 1705.94465433512 1471.19420928 C 1710.23265433512 1471.19420928 1714.28065433512 1471.93020928 1718.08865433512 1473.40220928 C 1721.89665433512 1474.87420928 1725.24065433512 1477.06620928 1728.12065433512 1479.97820928 C 1731.00065433512 1482.89020928 1733.28865433512 1486.52220928 1734.98465433512 1490.87420928 C 1736.68065433512 1495.22620928 1737.52865433512 1500.25020928 1737.52865433512 1505.94620928 C 1737.52865433512 1511.64220928 1736.68065433512 1516.66620928 1734.98465433512 1521.01820928 C 1733.28865433512 1525.37020928 1731.00065433512 1529.00220928 1728.12065433512 1531.91420928 C 1725.24065433512 1534.82620928 1721.89665433512 1537.01820928 1718.08865433512 1538.49020928 C 1714.28065433512 1539.96220928 1710.23265433512 1540.69820928 1705.94465433512 1540.69820928 C 1701.59265433512 1540.69820928 1697.48065433512 1539.96220928 1693.60865433512 1538.49020928 C 1689.73665433512 1537.01820928 1686.34465433512 1534.82620928 1683.43265433512 1531.91420928 C 1680.52065433512 1529.00220928 1678.21665433512 1525.37020928 1676.52065433512 1521.01820928 C 1674.82465433512 1516.66620928 1673.97665433512 1511.64220928 1673.97665433512 1505.94620928 Z M 1683.76865433512 1505.94620928 C 1683.76865433512 1509.97820928 1684.28065433512 1513.64220928 1685.30465433512 1516.93820928 C 1686.32865433512 1520.23420928 1687.78465433512 1523.03420928 1689.67265433512 1525.33820928 C 1691.56065433512 1527.64220928 1693.86465433512 1529.41820928 1696.58465433512 1530.66620928 C 1699.30465433512 1531.91420928 1702.36065433512 1532.53820928 1705.75265433512 1532.53820928 C 1709.14465433512 1532.53820928 1712.18465433512 1531.91420928 1714.87265433512 1530.66620928 C 1717.56065433512 1529.41820928 1719.84865433512 1527.64220928 1721.73665433512 1525.33820928 C 1723.62465433512 1523.03420928 1725.08065433512 1520.23420928 1726.10465433512 1516.93820928 C 1727.12865433512 1513.64220928 1727.64065433512 1509.97820928 1727.64065433512 1505.94620928 C 1727.64065433512 1501.91420928 1727.12865433512 1498.25020928 1726.10465433512 1494.95420928 C 1725.08065433512 1491.65820928 1723.62465433512 1488.85820928 1721.73665433512 1486.55420928 C 1719.84865433512 1484.25020928 1717.56065433512 1482.47420928 1714.87265433512 1481.22620928 C 1712.18465433512 1479.97820928 1709.14465433512 1479.35420928 1705.75265433512 1479.35420928 C 1702.36065433512 1479.35420928 1699.30465433512 1479.97820928 1696.58465433512 1481.22620928 C 1693.86465433512 1482.47420928 1691.56065433512 1484.25020928 1689.67265433512 1486.55420928 C 1687.78465433512 1488.85820928 1686.32865433512 1491.65820928 1685.30465433512 1494.95420928 C 1684.28065433512 1498.25020928 1683.76865433512 1501.91420928 1683.76865433512 1505.94620928 Z M 1801.75265433512 1539.25820928 C 1800.34465433512 1536.89020928 1798.72865433512 1534.23420928 1796.90465433512 1531.29020928 C 1795.08065433512 1528.34620928 1793.11265433512 1525.29020928 1791.00065433512 1522.12220928 C 1788.88865433512 1518.95420928 1786.69665433512 1515.73820928 1784.42465433512 1512.47420928 C 1782.15265433512 1509.21020928 1779.89665433512 1506.05820928 1777.65665433512 1503.01820928 C 1775.41665433512 1499.97820928 1773.24065433512 1497.11420928 1771.12865433512 1494.42620928 C 1769.01665433512 1491.73820928 1767.06465433512 1489.37020928 1765.27265433512 1487.32220928 L 1765.27265433512 1539.25820928 L 1756.15265433512 1539.25820928 L 1756.15265433512 1472.73020928 L 1763.54465433512 1472.73020928 C 1766.55265433512 1475.93020928 1769.76865433512 1479.65820928 1773.19265433512 1483.91420928 C 1776.61665433512 1488.17020928 1780.00865433512 1492.55420928 1783.36865433512 1497.06620928 C 1786.72865433512 1501.57820928 1789.89665433512 1506.01020928 1792.87265433512 1510.36220928 C 1795.84865433512 1514.71420928 1798.36065433512 1518.58620928 1800.40865433512 1521.97820928 L 1800.40865433512 1472.73020928 L 1809.52865433512 1472.73020928 L 1809.52865433512 1539.25820928 L 1801.75265433512 1539.25820928 Z"/></svg>